<svg xmlns="http://www.w3.org/2000/svg" viewBox="0 0 440 440" fill="none" shape-rendering="auto"><metadata xmlns:rdf="http://www.w3.org/1999/02/22-rdf-syntax-ns#" xmlns:xsi="http://www.w3.org/2001/XMLSchema-instance" xmlns:dc="http://purl.org/dc/elements/1.1/" xmlns:dcterms="http://purl.org/dc/terms/"><rdf:RDF><rdf:Description><dc:title>Face Generator</dc:title><dc:creator>The Visual Team</dc:creator><dc:source xsi:type="dcterms:URI">https://www.figma.com/community/file/986078800058673824</dc:source><dcterms:license xsi:type="dcterms:URI">https://creativecommons.org/licenses/by/4.0/</dcterms:license><dc:rights>Remix of „Face Generator” (https://www.figma.com/community/file/986078800058673824) by „The Visual Team”, licensed under „CC BY 4.0” (https://creativecommons.org/licenses/by/4.0/)</dc:rights></rdf:Description></rdf:RDF></metadata><mask id="viewboxMask"><rect width="440" height="440" rx="0" ry="0" x="0" y="0" fill="#fff" /></mask><g mask="url(#viewboxMask)"><g transform="matrix(.71048 0 0 .71048 24 2)"><path d="M131 137c-35 8.5-14 205 3.3 255.6 41.2 51.3 261.2 38.3 281 5.7 13.3-21.7 46.4-257.1 3.2-264.5-87-14.9-252.6-5.4-287.6 3.1Z" fill="#ecdcbf"/></g><g transform="translate(81.7 150.7) scale(.71856)"><circle cx="190.2" cy="167.2" r="121.2" fill="#89532c"/><path fill="#89532c" d="M69 164.5h242.4v191.2H69z"/><path d="M69 336h242v20H69v-20Z" fill="#000" fill-opacity=".2"/></g><g transform="translate(199.5 333.4) scale(.71856)"><path d="M59.8 40.1c0 17.1-13.9 4.2-31 4.2s-31 13-31-4.2a31 31 0 0 1 62 0Z" fill="#DE8383"/><path fill-rule="evenodd" clip-rule="evenodd" d="M1.4 47.3a30.4 30.4 0 0 1 28.3-19.7c12.8 0 23.8 8.2 28.3 19.7-2.5 2.3-6.9 1-12.5-.6-4.6-1.3-10-2.8-15.8-2.8-5.8 0-11.3 1.5-15.9 2.8-5.6 1.6-10 3-12.4.6Z" fill="#C06E6E"/><path fill-rule="evenodd" clip-rule="evenodd" d="M54 22H4.5A29.5 29.5 0 0 1 29.3 8.2c10.2 0 19.2 5.5 24.6 13.8Z" fill="#F9F9F9"/></g><g transform="translate(280.7 235.4) scale(.71856)"><rect x="20" y="22" width="88" height="88.1" rx="44" fill="#89532c"/><rect x="29.8" y="31.8" width="68.4" height="68.5" rx="34.2" fill="#000" fill-opacity=".2"/><rect x="23.9" y="49.4" width="37.2" height="37.2" rx="18.6" fill="#89532c"/></g><g transform="matrix(-.71856 0 0 .71856 161.5 235.4)"><rect x="20" y="22" width="88" height="88.1" rx="44" fill="#89532c"/><rect x="29.8" y="31.8" width="68.4" height="68.5" rx="34.2" fill="#000" fill-opacity=".2"/><rect x="23.9" y="49.4" width="37.2" height="37.2" rx="18.6" fill="#89532c"/></g><g transform="translate(114.8 215.5) scale(.71856)"><g fill="#161616"><path d="M206.1 81.6a11.6 11.6 0 1 1-23.1 0 11.6 11.6 0 0 1 23.1 0Z"/><circle cx="93.6" cy="81.6" r="11.6"/></g></g><g transform="translate(127.7 288.7) scale(.71856)"></g><g transform="translate(193 279.4) scale(.71856)"><path d="M18.6 38.3A10 10 0 0 0 29 45a10 10 0 0 0 19.4 0h.9a10 10 0 0 0 9.5-6.7 10 10 0 0 1-10.4 13.4 10 10 0 0 1-19.4 0H28a10 10 0 0 1-9.5-13.4Z" fill="#000" fill-opacity=".2"/></g><g transform="matrix(.52237 0 0 .52237 122.9 244.8)"><path d="M11 103V7.5h40L11 103Z" fill="#ecdcbf"/></g><g transform="matrix(-.52237 0 0 .52237 315.7 244.8)"><path d="M11 103V7.5h40L11 103Z" fill="#ecdcbf"/></g><g transform="matrix(.52237 0 0 .52237 108.7 145.6)"><path d="M374 130c6.5 15.9 11.5 34.5 11.5 70-11 0-73.7 6-114.5-10s-46.9-28.5-60-48c-13 27-37 38-73.5 48s-83.3 7.5-99.5 10c0-23.1 2-46 10.9-67.4A176 176 0 0 1 211 24a175 175 0 0 1 124 51.5c16.4 16.4 30.2 33.1 39 54.5Z" fill="#ecdcbf"/></g></g></svg>