<svg xmlns="http://www.w3.org/2000/svg" viewBox="0 0 440 440" fill="none" shape-rendering="auto"><metadata xmlns:rdf="http://www.w3.org/1999/02/22-rdf-syntax-ns#" xmlns:xsi="http://www.w3.org/2001/XMLSchema-instance" xmlns:dc="http://purl.org/dc/elements/1.1/" xmlns:dcterms="http://purl.org/dc/terms/"><rdf:RDF><rdf:Description><dc:title>Face Generator</dc:title><dc:creator>The Visual Team</dc:creator><dc:source xsi:type="dcterms:URI">https://www.figma.com/community/file/986078800058673824</dc:source><dcterms:license xsi:type="dcterms:URI">https://creativecommons.org/licenses/by/4.0/</dcterms:license><dc:rights>Remix of „Face Generator” (https://www.figma.com/community/file/986078800058673824) by „The Visual Team”, licensed under „CC BY 4.0” (https://creativecommons.org/licenses/by/4.0/)</dc:rights></rdf:Description></rdf:RDF></metadata><mask id="viewboxMask"><rect width="440" height="440" rx="0" ry="0" x="0" y="0" fill="#fff" /></mask><g mask="url(#viewboxMask)"><g transform="matrix(.71048 0 0 .71048 24 2)"><path d="m37 283 89.6 81h308.5l83.9-67.5-101.8-33.1 18-151.8-108.9 64L272.8 75l-64.3 94.5-116-52.7 34.1 134.8L37 283Z" fill="#b58143"/></g><g transform="translate(81.7 150.7) scale(.71856)"><path d="M309 148H71v124h.3v1.3c0 29.8 53.3 77.4 119 77.4 65.8 0 119.1-47.6 119.1-77.4 0-1.6-.1-3.1-.4-4.7V148Z" fill="#f8b788"/><path d="M71.2 253.6v.9-.9ZM71.2 254.5v18.8c0 29.8 53.4 77.4 119.1 77.4 65.8 0 119.1-47.6 119.1-77.4v-19.7.9c0 29.9-53.3 77.4-119 77.4-65.8 0-119.1-47.5-119.2-77.4Z" fill="#000" fill-opacity=".2"/><path d="M309 152.5c0 55.9-54.2 101.8-120 101.8-65.7 0-119-45.3-119-101.2C70 97.3 123.3 52 189 52c65.8 0 120 44.6 120 100.5Z" fill="#f8b788"/></g><g transform="translate(199.5 333.4) scale(.71856)"><path d="M-2.4 23.5a57 57 0 0 1 31-8.9c17 0 33 7.4 31 8.9 0 17-2-3.6-29-3.6-28.9 0-33 20.7-33 3.6Z" fill="#000"/></g><g transform="translate(280.7 235.4) scale(.71856)"><rect x="20" y="22" width="88" height="88.1" rx="44" fill="#f8b788"/><rect x="29.8" y="31.8" width="68.4" height="68.5" rx="34.2" fill="#000" fill-opacity=".2"/><rect x="23.9" y="49.4" width="37.2" height="37.2" rx="18.6" fill="#f8b788"/></g><g transform="matrix(-.71856 0 0 .71856 161.5 235.4)"><rect x="20" y="22" width="88" height="88.1" rx="44" fill="#f8b788"/><rect x="29.8" y="31.8" width="68.4" height="68.5" rx="34.2" fill="#000" fill-opacity=".2"/><rect x="23.9" y="49.4" width="37.2" height="37.2" rx="18.6" fill="#f8b788"/></g><g transform="translate(114.8 215.5) scale(.71856)"><path d="M76 75.5a23.9 23.9 0 1 0 40.7 22.7L76.2 75.6ZM212.1 75.5a23.9 23.9 0 1 1-40.7 22.7L212 75.6Z" fill="#fff"/><path d="M74.5 52.5c7.5 5 40 26 49 31.5M213 53c-7.5 5-40 26-49 31.5" stroke="#000" stroke-width="3.7" stroke-linecap="round"/><path d="M86.1 81.2a12.8 12.8 0 1 0 20.6 11.5L86.1 81.2ZM202 81.2a12.8 12.8 0 1 1-20.5 11.5L202 81.2Z" fill="#000"/></g><g transform="translate(127.7 288.7) scale(.71856)"><g fill="#F88888"><rect x="21" y="16" width="43.4" height="43.4" rx="21.7"/><rect x="194" y="16" width="43.4" height="43.4" rx="21.7"/></g></g><g transform="translate(193 279.4) scale(.71856)"><path d="M37.8 22c-7.1 9.5-20.2 29-16 31 4.3 2 18.6 2.5 25.3 2.5" stroke="#000" stroke-opacity=".5" stroke-width="4" stroke-linecap="round" stroke-linejoin="round"/></g><g transform="matrix(.52237 0 0 .52237 122.9 244.8)"><path d="M32.5 87.5C8.1 87.5 2.5 32.5 5 4h27.5c-6.2 16-3.2 29.8-1.5 47 2 20 21.3 5.1 25.4-2.7.5 15.6-12 39.2-23.9 39.2Z" fill="#b58143"/></g><g transform="matrix(-.52237 0 0 .52237 315.7 244.8)"><path d="M32.5 87.5C8.1 87.5 2.5 32.5 5 4h27.5c-6.2 16-3.2 29.8-1.5 47 2 20 21.3 5.1 25.4-2.7.5 15.6-12 39.2-23.9 39.2Z" fill="#b58143"/></g><g transform="matrix(.52237 0 0 .52237 108.7 145.6)"><path d="M384.9 132.5a185.5 185.5 0 0 1 14.1 71H151.5l-24-47-24 47H28a185.5 185.5 0 0 1 356.9-71Z" fill="#b58143"/></g></g></svg>