<svg xmlns="http://www.w3.org/2000/svg" viewBox="0 0 440 440" fill="none" shape-rendering="auto"><metadata xmlns:rdf="http://www.w3.org/1999/02/22-rdf-syntax-ns#" xmlns:xsi="http://www.w3.org/2001/XMLSchema-instance" xmlns:dc="http://purl.org/dc/elements/1.1/" xmlns:dcterms="http://purl.org/dc/terms/"><rdf:RDF><rdf:Description><dc:title>Face Generator</dc:title><dc:creator>The Visual Team</dc:creator><dc:source xsi:type="dcterms:URI">https://www.figma.com/community/file/986078800058673824</dc:source><dcterms:license xsi:type="dcterms:URI">https://creativecommons.org/licenses/by/4.0/</dcterms:license><dc:rights>Remix of „Face Generator” (https://www.figma.com/community/file/986078800058673824) by „The Visual Team”, licensed under „CC BY 4.0” (https://creativecommons.org/licenses/by/4.0/)</dc:rights></rdf:Description></rdf:RDF></metadata><mask id="viewboxMask"><rect width="440" height="440" rx="0" ry="0" x="0" y="0" fill="#fff" /></mask><g mask="url(#viewboxMask)"><g transform="matrix(.71048 0 0 .71048 24 2)"><path d="M41.6 296.4c-5.7 42.1 30.8 58.1 63.3 60-7.7 18.8 9.6 62 47.2 69.8 37.7 7.7 66.2-26.5 75.8-44.5 2.5 16.2 19.2 51 65.5 60.1 46.4 9.1 59.8-61.6 62.1-85.5 29 21 69 49.2 115.5 25.4 26.5-13.6 14-58.3 0-71 16.1-9.8 46.7-37.5 40-69.7-6.5-32.2-52.3-38.3-74.4-37.3 15.3-13 40-45.6 16.6-71.5-23.5-26-59.9-10.9-75.1 0 4.8-16.9 1.8-50.2-45.9-63.2-27.7-7.5-68 19.9-71.9 36.1-10.8-17-41.6-44.5-74.7-32.5-33 12-38.6 45.4-33.3 66.2-13.1-4-47.4-6.6-68.2 23.7-21 30.3 6.1 65.3 20.8 78.5-17.6 2-58.7 21.8-63.3 55.4Z" fill="#ecdcbf"/></g><g transform="translate(81.7 150.7) scale(.71856)"><path d="M69 111.3C69 95 82 82 98.3 82h185.4C300 82 313 95 313 111.3v241.4c0 16.2-13 29.3-29.3 29.3H98.3C82 382 69 369 69 352.7V111.3Z" fill="#89532c"/><path d="M69 330.8v22c0 16.1 13 29.2 29.3 29.2h185.4c16.2 0 29.3-13 29.3-29.3v-22c0 16.2-13 29.3-29.3 29.3H98.3C82 360 69 347 69 330.8Z" fill="#000" fill-opacity=".2"/></g><g transform="translate(199.5 333.4) scale(.71856)"><path d="M60.7 22.9c0 16.9-14.8 30.5-33 30.5C9.2 53.4-5.6 39.8-5.6 23S-1 8 27.6 8c34 0 33-2 33 14.8Z" fill="#DE8383"/><path fill-rule="evenodd" clip-rule="evenodd" d="M55.1 8.7c-5 4.8-15.3 9-27.2 9A42 42 0 0 1 1 9.3C4 7.9 9.8 8 21.5 8a2115 2115 0 0 0 14.8 0c9.4 0 15.3 0 18.8.7Z" fill="#F9F9F9"/></g><g transform="translate(280.7 235.4) scale(.71856)"><path d="M70.9 16A40.4 40.4 0 0 0 31 47.3V109c24.3-3.3 67.7-24.5 74-45 6.2-20.6-1-48-34.1-48Z" fill="#89532c"/><path d="M69.3 27.7c-19 0-27 15-28.6 22.5v44.1c17.5-2.3 48.5-17.5 53-32.2 4.5-14.7-.7-34.4-24.4-34.4Z" fill="#000" fill-opacity=".2"/><path d="M52.4 62.7c0-11.3-7.8-15-11.7-15.4v33.3a18.5 18.5 0 0 0 11.7-18Z" fill="#89532c"/></g><g transform="matrix(-.71856 0 0 .71856 161.5 235.4)"><path d="M70.9 16A40.4 40.4 0 0 0 31 47.3V109c24.3-3.3 67.7-24.5 74-45 6.2-20.6-1-48-34.1-48Z" fill="#89532c"/><path d="M69.3 27.7c-19 0-27 15-28.6 22.5v44.1c17.5-2.3 48.5-17.5 53-32.2 4.5-14.7-.7-34.4-24.4-34.4Z" fill="#000" fill-opacity=".2"/><path d="M52.4 62.7c0-11.3-7.8-15-11.7-15.4v33.3a18.5 18.5 0 0 0 11.7-18Z" fill="#89532c"/></g><g transform="translate(114.8 215.5) scale(.71856)"><path d="M76 52.4c3.6-2.8 9-8.4 19.8-8.4a25 25 0 0 1 18 8.4M180 52.4c3.6-2.8 9-8.4 19.8-8.4a25 25 0 0 1 18 8.4" stroke="#000" stroke-width="3.7" stroke-linecap="round"/><rect x="71" y="61.5" width="49.6" height="60.6" rx="14.4" fill="#fff"/><rect x="173" y="61.5" width="49.6" height="60.6" rx="14.4" fill="#fff"/><rect x="82" y="69.7" width="30.3" height="46.9" rx="9.6" fill="#000"/><rect x="181.3" y="69.7" width="30.3" height="46.9" rx="9.6" fill="#000"/></g><g transform="translate(127.7 288.7) scale(.71856)"></g><g transform="translate(193 279.4) scale(.71856)"><path d="M5.6 34.4a17 17 0 0 0 16.3 21.4h33.7A16.9 16.9 0 0 0 72 34.4C70 41.6 63.4 47 55.6 47H22c-7.8 0-14.4-5.3-16.3-12.5Z" fill="#000" fill-opacity=".2"/></g><g transform="matrix(.52237 0 0 .52237 122.9 244.8)"><path d="M52 8H11v96h41V8Z" fill="#ecdcbf"/></g><g transform="matrix(-.52237 0 0 .52237 315.7 244.8)"><path d="M52 8H11v96h41V8Z" fill="#ecdcbf"/></g><g transform="matrix(.52237 0 0 .52237 108.7 145.6)"><path d="M374 130c6.5 15.9 11.5 34.5 11.5 70-11 0-73.7 6-114.5-10s-46.9-28.5-60-48c-13 27-37 38-73.5 48s-83.3 7.5-99.5 10c0-23.1 2-46 10.9-67.4A176 176 0 0 1 211 24a175 175 0 0 1 124 51.5c16.4 16.4 30.2 33.1 39 54.5Z" fill="#ecdcbf"/></g></g></svg>