<svg version="1.1" id="Layer_1" xmlns="http://www.w3.org/2000/svg" xmlns:xlink="http://www.w3.org/1999/xlink" x="0px" y="0px"
	 width="100%" viewBox="0 0 1024 1024" enable-background="new 0 0 1024 1024" xml:space="preserve">
<path fill="#3ECFB4" opacity="1.000000" stroke="none" 
	d="
M281.831177,822.282532 
	C253.107925,805.770752 237.594666,780.677917 232.210983,748.905212 
	C231.520645,744.831055 229.673187,743.043091 226.132172,741.526978 
	C196.365799,728.782898 177.155365,707.221619 171.045547,674.871338 
	C169.104645,664.594666 169.156906,654.300537 171.472046,644.147827 
	C172.636627,639.040771 171.554031,635.621765 167.615448,631.979553 
	C151.791977,617.346924 141.552216,599.296082 136.358734,578.380005 
	C129.686188,551.507324 133.663925,525.908630 145.531265,501.237183 
	C148.135376,495.823425 150.803284,490.425446 154.475739,485.664398 
	C156.722900,482.751129 156.762512,480.184509 155.171921,476.970795 
	C149.067001,464.635986 146.590118,451.396423 146.903061,437.769653 
	C147.477829,412.742004 156.532455,391.061157 173.964508,373.019836 
	C176.019333,370.893188 176.731155,369.016479 176.205612,365.974731 
	C170.629776,333.703186 186.943390,293.913055 223.402512,279.433838 
	C226.210815,278.318573 227.262970,276.711517 227.441483,273.950714 
	C230.604630,225.029129 272.338623,175.120392 328.408417,165.836639 
	C337.828461,164.276932 347.344391,164.294220 356.814850,164.807541 
	C361.411957,165.056732 364.081726,163.488297 366.669830,159.796875 
	C387.980530,129.401474 432.161133,112.409340 467.524384,122.267876 
	C499.567932,131.200974 518.404419,153.110870 524.272583,185.927811 
	C525.919678,195.138718 525.941101,204.505859 525.953125,213.816391 
	C526.033203,275.978729 525.973267,338.141266 525.953369,400.303741 
	C525.952942,401.769440 526.321045,403.315491 525.185669,404.573547 
	C516.409363,403.986450 507.539642,396.253510 504.849487,386.515472 
	C501.830170,375.585999 496.097687,366.486572 487.540924,359.047058 
	C478.224518,350.947113 467.695404,347.897339 455.590027,350.773041 
	C452.580566,351.487915 449.609711,351.774475 447.009247,349.677582 
	C441.722412,345.414612 442.962799,338.407745 449.611450,335.752686 
	C458.828278,332.072083 468.249878,332.731476 477.548218,335.338806 
	C488.033295,338.278839 497.182159,343.527527 504.198273,352.087463 
	C504.688751,352.685852 505.343475,353.149658 505.969055,353.719055 
	C507.380402,352.246979 506.847076,350.664093 506.845520,349.267090 
	C506.829376,334.769165 507.231323,320.246704 506.513245,305.780884 
	C505.882172,293.067810 501.774475,281.252991 492.932037,271.645416 
	C486.988708,265.187805 479.629303,261.228821 470.766937,260.269867 
	C464.935913,259.638885 461.982239,256.925934 461.680450,252.172943 
	C461.331573,246.678299 464.548676,243.114639 470.069275,243.524323 
	C483.020172,244.485428 494.097473,249.728195 503.386719,258.794220 
	C504.299591,259.685181 504.738190,261.110138 506.242401,261.426697 
	C507.446381,260.362793 506.988770,258.931519 506.985229,257.694946 
	C506.927460,237.363983 507.362274,217.011124 506.545746,196.709061 
	C505.852631,179.475204 499.616119,164.175613 485.974365,152.757309 
	C477.813995,145.927002 468.783478,140.707947 457.880920,139.688614 
	C452.216522,139.159027 446.913635,140.561417 442.161499,143.549713 
	C427.162354,152.981628 417.402832,173.826782 430.744385,191.251312 
	C432.982910,194.174927 432.409210,196.173035 429.977478,198.521790 
	C421.607025,206.606812 420.360718,206.602936 414.508789,196.499969 
	C405.471802,180.898178 407.629852,165.186264 414.638428,149.564972 
	C415.308685,148.070953 416.182526,146.668274 416.942871,145.258453 
	C415.650116,143.805206 414.596771,144.951492 413.711456,145.333801 
	C401.576599,150.574295 391.416504,158.403214 382.665253,168.329010 
	C369.630585,183.113113 376.276062,206.415665 385.749115,215.951553 
	C387.745148,217.960800 389.975861,219.791550 391.679108,222.024429 
	C394.338196,225.510330 394.898376,229.438126 391.989502,233.068253 
	C389.136200,236.628952 385.274109,236.000931 382.025299,234.025284 
	C369.853607,226.623489 363.713257,215.092346 360.742157,201.589645 
	C359.809265,197.349884 359.348541,193.022736 359.696503,188.681686 
	C359.989044,185.031601 358.351013,183.537628 354.835327,183.377533 
	C320.693542,181.822769 292.237305,193.645477 269.779327,219.521454 
	C256.334503,235.012543 248.481125,253.046783 245.279175,273.727875 
	C251.617340,274.603210 257.622467,275.599030 263.667267,276.185852 
	C266.100464,276.422119 266.097351,273.808990 266.659760,272.203491 
	C272.514069,255.491928 282.468811,241.763336 297.016113,231.685928 
	C308.977142,223.400085 322.152557,218.008133 336.983185,217.674118 
	C342.448730,217.550995 345.421448,220.099350 345.771973,224.972443 
	C346.138916,230.073563 342.856689,234.092789 337.489288,234.223495 
	C300.823792,235.116379 277.378815,271.702423 277.296478,300.510315 
	C277.277374,307.192261 277.654266,313.813599 279.164703,320.323425 
	C279.911530,323.542297 278.789185,325.097900 275.680725,326.204132 
	C265.440582,329.848358 265.475311,329.959473 263.126892,319.424103 
	C261.562378,312.405304 260.907898,305.268982 261.255829,298.117889 
	C261.409851,294.951782 260.580841,293.637238 257.470734,293.031311 
	C242.473221,290.109406 229.293365,294.620148 217.668777,303.536865 
	C201.131989,316.221558 193.294632,333.462189 193.358932,354.287415 
	C193.363464,355.754272 193.090652,357.318207 194.644958,359.000244 
	C199.366638,357.449402 204.301743,355.703766 209.311172,354.206879 
	C223.413132,349.993073 237.538956,350.133423 251.629288,354.309418 
	C258.590698,356.372589 260.829437,359.717407 259.178284,365.410095 
	C257.844269,370.009277 253.583694,371.871796 247.233841,370.093567 
	C222.561356,363.184357 201.526337,369.947235 184.657440,388.306244 
	C148.824081,427.304779 164.917145,487.430634 205.696304,505.149567 
	C208.289429,506.276337 210.991470,507.150513 213.598587,508.247375 
	C218.702148,510.394592 220.988556,514.518127 219.557480,518.831909 
	C218.018387,523.471375 213.886520,525.552429 208.158188,523.959778 
	C197.236343,520.923157 187.532074,515.542908 179.166519,507.847229 
	C175.757950,504.711639 172.424072,501.494812 168.706711,497.984924 
	C163.830292,504.681610 160.165970,512.080627 157.246277,519.828003 
	C138.967728,568.329285 164.411667,613.623169 198.776428,633.805237 
	C217.657654,644.893921 237.440598,648.001892 257.341370,635.495361 
	C261.627228,632.801941 265.290619,629.466248 268.288422,625.384949 
	C269.173920,624.179321 270.070282,622.955627 271.126556,621.906250 
	C274.727386,618.328796 279.110138,617.754272 282.361572,620.331116 
	C285.736816,623.006104 286.383209,627.948608 283.578888,632.070190 
	C276.561310,642.384216 267.353058,650.077881 255.718719,654.753418 
	C253.110016,655.801880 250.489426,656.820740 247.843170,657.865479 
	C247.843170,658.791504 247.628082,659.530029 247.874466,660.049805 
	C255.029007,675.142212 272.661041,694.023132 297.000397,692.659424 
	C303.538971,692.293091 309.814209,690.946411 315.774811,688.067383 
	C321.056763,685.516296 324.543335,686.781555 326.884827,691.690613 
	C329.475006,697.121094 328.343506,700.098450 322.630249,702.886047 
	C296.745819,715.515442 264.752899,708.605652 245.907303,686.331055 
	C240.718903,680.198608 235.947128,673.766663 232.980530,666.251099 
	C231.334793,662.081787 228.990295,660.245361 224.211288,659.864319 
	C213.148361,658.982300 202.796310,655.228882 193.044601,649.899658 
	C192.196899,649.436523 191.272736,649.113220 189.852951,648.492798 
	C187.296402,655.702820 187.597580,662.917236 188.817078,669.799011 
	C194.541931,702.104614 218.336746,724.720703 250.862289,729.738281 
	C257.146149,730.707703 263.500519,730.386292 269.738403,731.522522 
	C274.812744,732.446716 277.392303,735.744141 277.150146,741.038086 
	C276.916534,746.144531 273.836060,749.227112 268.491547,749.359741 
	C263.014221,749.495605 257.530914,749.389893 251.803650,749.389893 
	C250.857590,750.289246 251.207352,751.709534 251.490784,752.931091 
	C260.414642,791.390747 293.526672,817.756653 331.621552,814.658264 
	C355.316040,812.731079 374.296967,792.850281 374.538666,769.251953 
	C374.610352,762.253601 372.836273,755.410278 370.355896,748.811951 
	C368.165863,742.986145 369.590637,739.196411 374.732727,736.909668 
	C379.230164,734.909668 382.794159,736.345215 385.242340,742.218689 
	C395.032135,765.705261 392.432678,787.724609 376.741211,807.972656 
	C374.185028,811.271057 371.407471,814.386475 367.988861,816.832092 
	C365.122772,818.882446 365.082336,821.075317 366.746429,824.101318 
	C381.384033,850.718323 412.378174,867.340332 440.477722,863.489868 
	C473.688354,858.939026 498.282227,836.849121 505.361664,804.859192 
	C508.598328,790.233521 506.159302,775.381226 507.047211,760.066772 
	C504.098175,761.021179 503.054352,763.010742 501.676056,764.512390 
	C489.400909,777.885925 473.904358,784.223267 456.068085,785.264648 
	C449.532257,785.646301 445.533264,782.606384 445.128113,777.598938 
	C444.744781,772.861694 448.707581,768.999084 455.243835,768.902405 
	C479.281036,768.546875 506.683350,747.396729 506.818970,711.340088 
	C506.823242,710.204712 507.044281,708.986267 505.607361,707.704163 
	C498.789032,710.273438 491.380402,711.236511 483.922150,709.950623 
	C470.819214,707.691650 461.648529,700.042664 455.749084,688.301636 
	C454.479034,685.773987 453.493500,683.103882 452.237305,680.568542 
	C448.026825,672.070618 442.017578,668.806519 432.693268,670.686157 
	C428.925262,671.445740 427.635895,670.193420 426.606964,666.971436 
	C423.078674,655.922607 424.538330,653.984863 436.219177,653.642944 
	C450.332764,653.229858 459.921783,660.009033 466.362732,671.993286 
	C468.409424,675.801392 469.880157,679.937866 472.106812,683.626953 
	C478.605743,694.394104 492.425110,697.198730 502.558716,690.241089 
	C505.846130,687.984070 507.131805,685.301453 506.678436,681.395142 
	C504.923218,666.272217 499.496124,653.122742 487.238983,643.325317 
	C478.564392,636.391663 478.761139,636.333069 484.729065,626.913025 
	C486.493164,624.128418 487.981628,623.725525 490.668518,625.596863 
	C495.990417,629.303406 501.339630,632.947937 505.641754,637.935181 
	C507.558685,636.402954 506.815643,634.610352 506.820740,633.099060 
	C506.885468,613.933960 506.972229,594.767578 506.792572,575.604004 
	C506.751862,571.261780 508.120209,568.400879 511.902374,566.232544 
	C516.167114,563.787537 520.156494,560.862366 525.675049,557.214355 
	C525.277771,565.144775 525.850708,571.700989 525.866272,578.220825 
	C525.989685,629.883850 526.314941,681.552551 525.669556,733.208130 
	C525.421936,753.024658 526.465393,772.819153 525.541809,792.655701 
	C524.599121,812.902710 518.301941,830.793884 505.727753,846.495422 
	C487.207794,869.621521 462.976349,882.308167 433.402222,881.877747 
	C397.690430,881.357971 369.550568,866.091431 351.753784,834.184143 
	C349.763733,830.616272 348.057220,829.808838 344.014191,830.797791 
	C322.375244,836.090820 301.741394,832.921936 281.831177,822.282532 
z"/>
<path fill="#3ECFB4" opacity="1.000000" stroke="none" 
	d="
M834.592163,559.999878 
	C834.585815,473.502045 834.574707,387.504272 834.572693,301.506500 
	C834.572021,273.183838 834.584290,244.861160 834.620605,216.538528 
	C834.624878,213.192307 834.418457,209.886887 833.722412,206.607437 
	C832.126465,199.088562 825.975769,193.760284 818.238892,193.339233 
	C815.911865,193.212601 813.573547,193.280853 811.240417,193.280685 
	C724.575867,193.274445 637.911316,193.271347 551.246765,193.265457 
	C543.600342,193.264938 543.506897,193.266891 542.753540,185.782242 
	C542.406128,182.331375 540.699951,179.108704 541.011047,175.678543 
	C542.128052,174.315643 543.525696,174.507553 544.818726,174.508011 
	C636.149231,174.540817 727.479797,174.556320 818.810181,174.663101 
	C834.193176,174.681091 847.096375,184.628204 851.374817,199.476654 
	C852.290161,202.653030 852.894165,205.982590 853.115906,209.276978 
	C853.327271,212.416763 854.633118,213.342850 857.671143,213.831726 
	C875.020996,216.623596 887.318481,231.113983 887.321106,248.771606 
	C887.349121,437.766937 887.345703,626.762268 887.307922,815.757568 
	C887.304199,834.279419 873.164612,849.650146 854.746643,851.384583 
	C850.443054,851.789795 846.106262,852.026550 841.784607,852.028198 
	C739.453918,852.066772 637.123169,852.066589 534.792480,852.042419 
	C532.347534,852.041809 529.809448,852.519897 526.529480,850.853577 
	C530.226074,845.696655 532.668396,839.988464 535.608887,834.553223 
	C536.853760,832.252197 539.849731,833.079224 542.110657,833.075439 
	C573.276489,833.023438 604.442322,833.024048 635.608215,833.016602 
	C705.606445,832.999939 775.604675,832.994385 845.602905,832.951172 
	C850.072449,832.948425 854.692932,833.425110 858.766418,830.949524 
	C865.584656,826.805725 868.832825,820.820007 868.823608,812.688904 
	C868.753235,750.523926 868.836121,688.358704 868.847107,626.193604 
	C868.869141,501.696747 868.856567,377.199890 868.938965,252.703064 
	C868.943604,245.657135 867.768982,239.436615 861.425049,235.264832 
	C859.161438,233.776260 856.827454,232.624939 853.957336,233.073059 
	C852.504883,235.243866 853.138306,237.643005 853.137939,239.894333 
	C853.109131,418.056366 853.118652,596.218384 853.120056,774.380432 
	C853.120117,781.579712 852.630249,788.702271 849.327148,795.304199 
	C842.261963,809.425720 830.162842,815.195740 815.068054,815.220947 
	C748.569885,815.331909 682.071411,815.268738 615.573059,815.270874 
	C592.906921,815.271545 570.240845,815.284851 547.574707,815.278870 
	C541.515503,815.277283 541.428650,815.144653 542.501709,809.024109 
	C542.788757,807.386841 543.029480,805.741028 543.336853,804.107727 
	C544.735474,796.675598 544.741272,796.674866 552.154175,796.674377 
	C638.985413,796.669189 725.816589,796.666931 812.647827,796.657532 
	C827.337280,796.655945 834.645386,789.325256 834.644653,774.490295 
	C834.641418,703.160156 834.611450,631.830017 834.592163,559.999878 
z"/>
<path fill="#3ECFB4" opacity="1.000000" stroke="none" 
	d="
M641.000000,500.998169 
	C691.162964,500.969849 740.825928,500.941254 790.488892,500.915527 
	C798.174622,500.911560 798.205994,500.917755 798.170471,508.775818 
	C798.115540,520.931946 799.730652,519.984497 786.902954,519.984375 
	C713.575134,519.983521 640.247070,520.061523 566.919861,519.854919 
	C559.692017,519.834595 553.983582,521.845154 548.067566,525.945496 
	C525.207275,541.789856 502.011017,557.151733 478.834991,572.535400 
	C475.614563,574.673096 474.458099,576.410156 475.734253,580.531311 
	C482.733154,603.132996 462.977264,637.514343 428.502441,629.421875 
	C423.044708,628.140686 420.207397,629.182190 417.084259,633.812561 
	C395.196411,666.263672 373.058228,698.546692 350.826630,730.763794 
	C348.601929,733.987671 349.809723,736.214111 351.114868,738.971924 
	C359.548035,756.791260 351.292267,775.877747 332.822266,781.405945 
	C321.614624,784.760437 308.292969,780.446960 300.957214,771.088135 
	C293.311035,761.333313 292.640686,747.585815 299.288666,736.867126 
	C305.809204,726.353821 317.989227,720.516113 329.633972,723.094971 
	C333.949310,724.050659 335.807678,722.677673 338.060242,719.380066 
	C360.142639,687.052917 382.358337,654.816406 404.661316,622.640930 
	C406.945557,619.345520 407.885803,616.829895 404.681702,613.546448 
	C402.245392,611.049805 400.630432,607.724121 399.849304,604.326233 
	C398.809265,599.801819 396.162170,598.824646 391.902466,598.841980 
	C349.739716,599.014038 307.576263,599.023560 265.413025,599.066528 
	C256.662720,599.075439 256.662689,599.051636 256.662933,590.410339 
	C256.662964,589.743713 256.660614,589.077087 256.663849,588.410461 
	C256.696045,581.750122 256.696289,581.727295 263.232544,581.724915 
	C306.062744,581.709106 348.893280,581.626587 391.722717,581.803589 
	C396.530060,581.823486 398.523743,580.358765 400.082916,575.731384 
	C408.491608,550.775696 438.537415,541.712219 460.420746,557.540771 
	C464.508301,560.497375 467.031647,560.540710 471.203369,557.677246 
	C497.710815,539.482605 524.477478,521.665894 551.101929,503.640747 
	C554.182800,501.554932 557.410217,500.949738 561.005798,500.957367 
	C587.503784,501.013763 614.001892,500.994385 641.000000,500.998169 
M423.701355,571.122986 
	C422.295166,572.536316 420.752106,573.839050 419.505646,575.381409 
	C412.968903,583.469971 412.595428,594.441040 418.464203,603.271667 
	C423.971741,611.558777 433.706116,615.521301 442.724426,613.105835 
	C452.046234,610.609070 457.774384,604.175476 459.470947,595.128784 
	C461.297241,585.390503 458.563507,576.480957 449.941071,570.506470 
	C441.466614,564.634521 432.792389,565.132751 423.701355,571.122986 
z"/>
<path fill="#3ECFB4" opacity="1.000000" stroke="none" 
	d="
M611.000000,435.761597 
	C630.494873,435.745636 649.490723,435.831543 668.483765,435.637390 
	C672.739807,435.593933 674.346558,436.773102 674.336975,441.259918 
	C674.309021,454.338654 674.485901,454.335724 661.598450,454.340729 
	C627.774292,454.353790 593.949890,454.312408 560.126221,454.449951 
	C555.302979,454.469574 551.074158,453.411102 546.813416,451.145660 
	C488.577332,420.181976 430.281189,389.331268 372.002045,358.448578 
	C366.854828,355.721039 361.632263,353.118134 356.619995,350.160248 
	C353.772339,348.479736 351.622009,348.329834 349.101501,350.755737 
	C340.700317,358.841614 330.693115,361.157135 319.593872,357.913696 
	C315.981384,356.858032 314.067566,358.042267 312.060242,360.752319 
	C301.254730,375.340790 290.356232,389.860687 279.427429,404.357208 
	C278.078278,406.146790 277.552734,407.630768 278.879883,409.733002 
	C287.806702,423.873108 288.506927,438.421143 280.689362,453.263000 
	C279.653625,455.229401 280.097321,456.606842 281.472168,458.165436 
	C296.348053,475.029755 311.196899,491.917999 325.994751,508.850769 
	C327.707428,510.810638 329.542419,510.935272 331.813904,510.269012 
	C348.907227,505.254944 364.337646,509.127289 378.637421,519.070984 
	C387.757935,525.413208 393.306213,534.332886 397.247223,544.467896 
	C398.313782,547.210693 397.510651,548.933960 394.833344,549.947327 
	C393.899750,550.300720 392.996552,550.734009 392.075928,551.122314 
	C384.499969,554.317932 384.433289,554.351868 380.755157,547.294861 
	C375.011108,536.274109 366.719604,528.199768 354.348114,525.407349 
	C338.020081,521.721741 325.873657,528.911011 316.178436,541.305481 
	C312.019592,546.622192 309.454926,552.847778 308.448425,559.527588 
	C307.934662,562.937195 306.248413,563.514771 303.314087,563.162048 
	C292.115021,561.816040 290.659149,559.583740 294.124695,548.845947 
	C297.262848,539.122498 302.859528,530.892944 309.863556,523.627747 
	C312.296600,521.103943 312.722656,519.460510 310.194763,516.624329 
	C296.894226,501.702026 283.739258,486.648041 270.691071,471.504272 
	C268.302460,468.732025 266.375946,468.446564 263.037445,469.948608 
	C241.024521,479.852417 216.908188,469.143921 208.837387,446.104370 
	C201.158325,424.183167 214.529739,399.011566 236.875793,393.288971 
	C244.882492,391.238556 252.774155,391.874207 260.405365,394.737335 
	C263.503571,395.899658 265.231384,395.278656 267.130341,392.729462 
	C277.977264,378.168396 288.897919,363.660797 299.956818,349.260437 
	C301.865448,346.775116 301.937042,344.972595 300.534821,342.176361 
	C289.540741,320.252655 302.759308,295.950806 327.118011,294.137054 
	C341.073334,293.097931 356.567657,303.150818 359.284790,320.448517 
	C359.568573,322.255066 360.290771,324.218323 359.870667,325.870087 
	C358.220398,332.358795 362.542938,334.457550 367.100342,336.775208 
	C410.746796,358.971893 453.794250,382.307648 497.067078,405.214996 
	C513.994507,414.175812 530.960144,423.067139 547.792419,432.203583 
	C552.324036,434.663300 556.820435,435.911713 562.016724,435.840057 
	C578.175110,435.617126 594.338501,435.760834 611.000000,435.761597 
M232.613358,414.080627 
	C229.465683,416.451111 227.365753,419.666138 225.714233,423.133453 
	C221.650452,431.665283 223.333160,439.779694 228.401855,447.191772 
	C233.078522,454.030609 240.058838,457.146240 248.236420,456.522766 
	C258.123138,455.769012 265.594177,449.094421 268.209747,439.524597 
	C270.808472,430.016418 266.992554,418.757263 259.280457,413.178040 
	C251.662704,407.667053 242.004211,407.831390 232.613358,414.080627 
z"/>
<path fill="#3ECFB4" opacity="1.000000" stroke="none" 
	d="
M631.000000,327.039307 
	C612.512329,327.043579 594.524536,327.067383 576.536926,327.039032 
	C570.186768,327.029053 569.789551,326.615723 569.785950,320.173401 
	C569.776245,302.851929 569.945618,285.528900 569.739075,268.210083 
	C569.684509,263.636353 571.135132,262.144653 575.715332,262.156647 
	C609.357056,262.244873 642.999329,262.099548 676.641418,262.065094 
	C714.615479,262.026215 752.589600,262.027344 790.563660,262.008575 
	C797.897644,262.004974 798.044617,262.087921 798.049927,269.597382 
	C798.061890,286.585602 798.022400,303.573883 797.975098,320.562073 
	C797.958130,326.658875 797.620972,326.991882 791.391418,326.994629 
	C738.094299,327.018188 684.797119,327.025848 631.000000,327.039307 
z"/>
<path fill="#3ECFB4" opacity="1.000000" stroke="none" 
	d="
M765.999878,590.324951 
	C703.015381,590.322083 640.530884,590.322021 578.046387,590.310669 
	C569.954651,590.309204 569.936768,590.281982 570.001770,582.446655 
	C570.108887,569.541687 569.559021,571.726379 580.681702,571.716675 
	C650.664368,571.655823 720.647034,571.687683 790.629700,571.691467 
	C798.138184,571.691895 798.184937,571.699829 798.158752,579.092224 
	C798.113953,591.768188 799.570007,590.223267 786.994751,590.312012 
	C780.163452,590.360229 773.331543,590.323059 765.999878,590.324951 
z"/>
<path fill="#3ECFB4" opacity="1.000000" stroke="none" 
	d="
M367.362183,267.628479 
	C373.140381,271.043091 378.767456,273.860229 385.024170,275.317261 
	C388.767303,276.188904 390.797150,275.453491 391.787598,271.239075 
	C396.977844,249.154495 411.285004,235.470520 432.324188,228.267807 
	C437.994781,226.326477 439.026703,226.994263 440.150177,232.708786 
	C440.214355,233.035110 440.226074,233.371490 440.283844,233.699371 
	C442.118713,244.107712 442.059784,242.222900 433.347870,245.419342 
	C410.732819,253.716873 401.268738,278.650513 408.528290,300.020691 
	C408.676392,300.456604 409.114624,300.793915 409.380585,301.130463 
	C411.271423,301.666870 412.189453,300.194397 413.336334,299.368500 
	C429.478577,287.743988 447.358582,283.045227 467.115875,285.826752 
	C468.424683,286.011017 469.724915,286.398621 470.972656,286.848267 
	C475.110138,288.339264 477.276062,291.248047 476.460907,295.690613 
	C475.669464,300.003998 472.940033,302.546387 468.415710,302.279663 
	C462.454437,301.928253 456.559753,300.807281 450.523773,301.723633 
	C429.753876,304.876892 414.670044,315.913300 404.729462,334.270477 
	C401.483459,340.264923 401.432404,340.237305 395.352051,336.920593 
	C387.056183,332.395386 386.549438,332.054474 391.906799,324.091339 
	C396.276917,317.595581 395.975616,312.206024 393.714386,304.818634 
	C391.011017,295.986969 386.793396,292.129974 377.945068,289.762329 
	C362.354431,285.590576 349.126312,276.893219 339.887207,263.087463 
	C336.330811,257.773163 336.393341,257.499268 341.822845,254.425842 
	C342.837799,253.851303 343.913330,253.368210 344.872467,252.713440 
	C348.592163,250.174133 351.390900,250.470276 353.842407,254.697800 
	C356.995483,260.135132 361.969604,263.894226 367.362183,267.628479 
z"/>
<path fill="#3ECFB4" opacity="1.000000" stroke="none" 
	d="
M373.910156,469.312714 
	C360.728790,468.432739 348.486542,465.843201 336.880676,460.256317 
	C314.497925,449.481598 306.370087,417.956909 322.009857,396.323883 
	C325.488220,391.512634 330.092041,390.531647 334.086945,393.372681 
	C337.878357,396.068939 338.319458,400.458435 335.283936,405.305328 
	C335.107239,405.587494 334.909210,405.856232 334.729828,406.136780 
	C326.763336,418.596832 329.083038,434.004822 340.911438,443.204651 
	C350.490173,450.654694 362.011108,452.144714 373.830902,452.772858 
	C374.190857,449.339691 372.299957,447.176117 371.462372,444.738983 
	C365.121399,426.289612 366.945251,408.036194 372.388123,389.819153 
	C373.340332,386.632050 374.272522,383.436859 375.331421,380.284882 
	C375.690948,379.214630 376.266296,377.524963 376.991943,377.381989 
	C381.692902,376.455872 384.808868,380.280212 388.749176,381.739288 
	C391.026611,382.582581 390.627014,384.514557 390.015869,386.394836 
	C386.610168,396.873230 384.313599,407.554474 383.766174,418.606293 
	C383.121124,431.630280 386.423553,443.268341 395.164856,453.166718 
	C397.328552,455.616882 400.077454,457.145966 403.042725,458.295929 
	C419.237946,464.576782 426.196747,477.386902 428.119232,493.731506 
	C428.720093,498.839752 427.426331,500.237030 421.792419,501.075500 
	C415.991211,501.938812 413.447235,500.529266 412.545074,495.951904 
	C409.166656,478.810577 401.219177,471.727448 383.794006,470.281433 
	C380.648468,470.020416 377.512390,469.645752 373.910156,469.312714 
z"/>
<path fill="#3ECFB4" opacity="1.000000" stroke="none" 
	d="
M692.000122,641.660400 
	C704.656311,641.659912 716.813599,641.752747 728.967896,641.599365 
	C732.373596,641.556458 733.908569,642.482300 733.523804,646.119568 
	C733.227417,648.921448 733.115112,651.813477 733.465271,654.596985 
	C734.031616,659.099976 732.230652,660.316956 727.903442,660.283386 
	C705.091125,660.106689 682.276855,660.175049 659.463257,660.177063 
	C631.654053,660.179504 603.844543,660.131592 576.036072,660.284424 
	C571.633789,660.308594 569.705200,659.145203 569.851685,654.378113 
	C570.324524,638.988892 568.335083,641.761841 582.594116,641.708801 
	C618.895691,641.573730 655.197998,641.661743 692.000122,641.660400 
z"/>
<path fill="#3ECFB4" opacity="1.000000" stroke="none" 
	d="
M625.000000,398.286987 
	C608.344238,398.287750 592.185913,398.125275 576.034363,398.386383 
	C571.096924,398.466187 569.695068,396.656891 569.821777,391.990295 
	C570.223999,377.180786 568.394165,379.720978 581.892944,379.694702 
	C630.193481,379.600708 678.494263,379.645905 726.794983,379.648071 
	C733.365295,379.648346 733.365295,379.673584 733.386719,386.238068 
	C733.426025,398.273254 733.426025,398.283112 721.435242,398.285156 
	C689.456848,398.290619 657.478394,398.286774 625.000000,398.286987 
z"/>
<path fill="#3ECFB4" opacity="1.000000" stroke="none" 
	d="
M223.130707,599.860657 
	C224.914246,601.125916 226.450165,602.124695 227.915329,603.218262 
	C229.959503,604.743896 233.985046,604.801086 233.810059,607.837097 
	C233.565674,612.077271 232.050262,616.302246 229.802673,620.043945 
	C228.795624,621.720459 227.144180,620.781067 225.741989,620.300964 
	C210.190063,614.976746 199.757233,600.555847 199.695892,584.295959 
	C199.667587,576.791321 199.652115,576.851807 192.405716,574.998291 
	C185.559158,573.246948 179.153290,570.487854 173.783188,565.775269 
	C169.802994,562.282471 169.873489,560.635803 173.758682,555.638367 
	C177.538223,550.776794 179.208939,550.365295 183.596451,553.214844 
	C204.246948,566.627014 228.550079,560.579773 240.169769,538.853699 
	C245.246887,529.360718 245.440613,519.133179 243.145828,508.749359 
	C242.364517,505.213867 241.329132,501.535431 244.611084,498.476593 
	C249.313080,494.094238 255.349518,495.487366 257.665833,501.884338 
	C262.062225,514.025757 262.159454,526.400024 257.996613,538.571045 
	C252.291199,555.251953 241.183365,567.067749 224.636063,573.461365 
	C216.411667,576.639160 213.974426,581.734375 217.005569,590.468872 
	C218.219315,593.966309 220.044418,597.128296 223.130707,599.860657 
z"/>
<path fill="#3ECFB4" opacity="1.000000" stroke="none" 
	d="
M588.000977,729.414978 
	C583.170471,729.401855 578.833923,729.246826 574.510559,729.421021 
	C570.973267,729.563538 569.805359,727.974792 569.888062,724.643188 
	C570.295959,708.203491 567.892029,711.310669 582.890259,711.176331 
	C622.698120,710.819763 662.510986,711.023193 702.321899,711.023132 
	C708.655701,711.023132 708.889709,711.178528 708.402405,717.471375 
	C708.101135,721.362915 710.278381,726.544861 707.110840,728.793152 
	C704.536560,730.620422 699.747253,729.403503 695.940125,729.405518 
	C660.126953,729.424927 624.313782,729.416138 588.000977,729.414978 
z"/>
<path fill="#3ECFB4" opacity="1.000000" stroke="none" 
	d="
M463.931458,808.038086 
	C464.937134,807.690613 465.561890,807.455688 466.203247,807.281982 
	C469.008545,806.522705 471.944092,802.585693 474.181732,804.607971 
	C477.544891,807.647278 478.587585,812.666382 479.874390,817.125549 
	C480.397675,818.938843 478.530914,819.666931 477.218353,820.255005 
	C470.985870,823.047668 464.695496,825.857605 457.776031,826.235229 
	C454.569641,826.410156 452.605682,827.825073 450.743927,830.178162 
	C439.070679,844.932007 425.711182,848.364258 408.263245,841.455688 
	C404.751495,840.065247 403.277344,838.354065 405.295319,834.780945 
	C405.457245,834.494202 405.536224,834.161194 405.659424,833.851929 
	C409.109741,825.194031 409.125732,825.138123 418.033752,827.665344 
	C424.005432,829.359558 429.412994,829.071411 434.508453,823.563904 
	C427.432617,820.485535 421.979309,816.024353 417.142792,810.691589 
	C410.421906,803.281250 406.949432,794.427368 404.897186,784.850098 
	C404.153198,781.378235 405.489319,779.413025 409.024719,778.963196 
	C409.354614,778.921204 409.681213,778.853210 410.009338,778.797302 
	C418.940857,777.276978 418.940857,777.276917 421.702667,785.843323 
	C428.023071,805.447510 443.063690,813.473755 463.931458,808.038086 
z"/>
<path fill="#3ECFB4" opacity="1.000000" stroke="none" 
	d="
M307.077759,641.934692 
	C309.067474,640.994324 310.658569,639.833557 312.399658,639.528381 
	C324.358063,637.432251 327.209778,628.040588 329.621582,618.297729 
	C330.208221,615.927979 329.794464,612.732117 332.816772,612.136963 
	C336.857300,611.341248 341.118073,611.047974 345.121063,612.401855 
	C346.709625,612.939087 346.370239,614.986511 346.286804,616.443909 
	C345.980103,621.800415 344.827881,627.010742 342.615540,631.881104 
	C341.095337,635.227783 341.371613,636.895691 345.376831,637.794312 
	C353.174103,639.543579 359.608673,644.055542 365.845581,648.849060 
	C368.052094,650.544922 368.783691,652.356873 367.036560,654.769653 
	C366.745117,655.172119 366.521088,655.623779 366.270721,656.055542 
	C361.206085,664.789001 361.199341,664.790833 353.036011,659.285339 
	C337.535278,648.831482 321.049469,649.810608 306.704834,662.008606 
	C304.805695,663.623535 302.943787,665.340820 300.835327,666.637939 
	C297.218048,668.863464 293.776001,668.148499 290.925720,665.108337 
	C288.169128,662.168030 287.987823,659.004761 290.335541,655.607666 
	C294.534393,649.531921 300.447449,645.598755 307.077759,641.934692 
z"/>
<path fill="#3ECFB4" opacity="1.000000" stroke="none" 
	d="
M412.025330,708.991699 
	C425.535889,718.842590 440.249237,723.479126 456.683655,722.752014 
	C462.941132,722.475220 465.858063,724.797852 466.465607,729.596008 
	C467.106903,734.660522 464.068817,738.937195 458.626160,739.129089 
	C429.468811,740.157043 405.424316,729.708313 387.250214,706.543884 
	C386.041321,705.003052 385.353149,703.359680 386.671448,701.545471 
	C389.191742,698.076965 391.127441,694.167419 394.893555,690.531982 
	C400.033081,697.249084 405.440186,703.455078 412.025330,708.991699 
z"/>
<path fill="#3ECFB4" opacity="1.000000" stroke="none" 
	d="
M488.287476,480.770844 
	C486.371338,499.336334 477.101074,512.505371 461.411530,521.391113 
	C458.350189,523.124939 455.136871,524.462280 451.704712,525.218933 
	C442.942596,527.150757 438.639923,522.979614 439.563599,513.778442 
	C439.884338,510.583771 442.270569,510.865234 444.226196,510.364380 
	C458.111267,506.808228 467.321259,498.427094 471.118439,484.432068 
	C472.088745,480.855957 472.006470,477.206146 471.857910,473.538055 
	C471.623688,467.754761 473.251831,466.063232 479.405640,465.416168 
	C484.956665,464.832489 487.207001,466.372192 488.019928,471.844299 
	C488.432068,474.618195 488.226501,477.483795 488.287476,480.770844 
z"/>
<path fill="#3ECFB4" opacity="1.000000" stroke="none" 
	d="
M526.048889,474.001709 
	C526.036255,482.820007 525.922485,491.140381 526.054993,499.456848 
	C526.113281,503.120392 525.084473,505.682678 521.694641,507.629578 
	C517.141663,510.244507 512.930603,513.454895 507.542786,517.108154 
	C507.542786,492.801300 507.542786,469.711090 507.542786,445.870972 
	C513.991638,448.190125 519.728088,451.273132 524.890503,455.306549 
	C526.487488,456.554291 525.981628,459.042725 526.005981,461.024231 
	C526.057190,465.183075 526.038147,469.342804 526.048889,474.001709 
z"/>
<path fill="#3ECFB4" opacity="1.000000" stroke="none" 
	d="
M421.024017,435.005737 
	C417.783783,431.622925 414.702850,428.557617 412.793243,424.587189 
	C410.818420,420.481232 412.140717,416.157990 416.031494,413.845795 
	C420.019684,411.475616 424.020691,412.446503 426.814148,416.462311 
	C434.712646,427.817017 443.737061,431.380096 456.931763,427.924500 
	C460.356812,427.027527 462.147186,427.933899 463.743713,430.888245 
	C469.270752,441.116028 468.771698,442.784821 457.094849,444.787323 
	C443.866638,447.055878 431.585876,444.557770 421.024017,435.005737 
z"/>
<path fill="#3ECFB4" opacity="1.000000" stroke="none" 
	d="
M460.260925,165.755005 
	C471.292053,166.948212 478.659210,173.087296 484.190277,181.673553 
	C488.414001,188.230347 490.177155,195.740524 491.144989,203.371445 
	C491.959198,209.791138 488.679413,214.410904 483.525055,214.811798 
	C478.562347,215.197784 475.306244,211.564041 474.622253,205.019028 
	C474.170715,200.698669 473.107544,196.505798 471.500702,192.470306 
	C469.319489,186.992371 465.251190,183.688263 459.671997,181.862701 
	C455.898895,180.628098 453.541718,177.983459 453.640594,173.667419 
	C453.737122,169.456436 455.663971,166.754013 460.260925,165.755005 
z"/>
</svg>